<?xml version="1.0" encoding="UTF-8"?>
<svg width="25px" height="30px" viewBox="0 0 25 30" version="1.1" xmlns="http://www.w3.org/2000/svg" xmlns:xlink="http://www.w3.org/1999/xlink">
    <!-- Generator: Sketch 50.2 (55047) - http://www.bohemiancoding.com/sketch -->
    <title>Icons / badge/ premium</title>
    <desc>Created with Sketch.</desc>
    <defs></defs>
    <g id="OLX---New" stroke="none" stroke-width="1" fill="none" fill-rule="evenodd">
        <g id="Desktop---Componentes" transform="translate(-197.000000, -1359.000000)">
            <g id="Group-5" transform="translate(193.000000, 1358.000000)">
                <g id="Icons-/-badge/-premium" transform="translate(4.000000, 1.000000)">
                    <g id="selo-premium">
                        <path d="M25,1.44723075 C25,0.354221889 24.6364117,-3.55271368e-15 23.4874725,-3.55271368e-15 L1.55487061,-3.55271368e-15 C0.330877304,-3.55271368e-15 3.2063241e-13,0.327758789 -1.82209803e-12,1.44723075 L-1.83320026e-12,29.5238095 L12.5,23.9507185 C12.499992,23.950723 16.6666587,25.8084201 25,29.5238095 L25,1.44723075 Z" id="Mask" fill="#28B5D9" fill-rule="nonzero"></path>
                        <g id="Group" transform="translate(6.250000, 7.857143)" fill="#FFFFFF" fill-rule="nonzero">
                            <polygon id="Shape" points="0 2.85714286 6.64054212 10.7142857 13.28125 2.85714286 6.64054212 2.85714286"></polygon>
                            <polygon id="Shape" points="13.28125 2.14285714 11.5166049 0 6.64054212 0 1.76464509 0 0 2.14285714 6.64054212 2.14285714"></polygon>
                        </g>
                    </g>
                </g>
            </g>
        </g>
    </g>
</svg>